<?xml version="1.0" encoding="UTF-8" standalone="no"?>
<!-- Created with Inkscape (http://www.inkscape.org/) -->

<svg
   xmlns:dc="http://purl.org/dc/elements/1.1/"
   xmlns:cc="http://creativecommons.org/ns#"
   xmlns:rdf="http://www.w3.org/1999/02/22-rdf-syntax-ns#"
   xmlns:svg="http://www.w3.org/2000/svg"
   xmlns="http://www.w3.org/2000/svg"
   xmlns:sodipodi="http://sodipodi.sourceforge.net/DTD/sodipodi-0.dtd"
   xmlns:inkscape="http://www.inkscape.org/namespaces/inkscape"
   width="210mm"
   height="297mm"
   viewBox="0 0 210 297"
   version="1.1"
   id="svg955"
   inkscape:version="0.92.2 (5c3e80d, 2017-08-06)"
   sodipodi:docname="scheme6.svg">
  <defs
     id="defs949">
    <marker
       inkscape:isstock="true"
       style="overflow:visible;"
       id="marker7409"
       refX="0.0"
       refY="0.0"
       orient="auto"
       inkscape:stockid="Arrow2Lend">
      <path
         transform="scale(1.1) rotate(180) translate(1,0)"
         d="M 8.7185878,4.0337352 L -2.2072895,0.016013256 L 8.7185884,-4.0017078 C 6.9730900,-1.6296469 6.9831476,1.6157441 8.7185878,4.0337352 z "
         style="fill-rule:evenodd;stroke-width:0.625;stroke-linejoin:round;stroke:#001aff;stroke-opacity:1;fill:#001aff;fill-opacity:1"
         id="path7407" />
    </marker>
    <marker
       inkscape:isstock="true"
       style="overflow:visible;"
       id="marker7297"
       refX="0.0"
       refY="0.0"
       orient="auto"
       inkscape:stockid="Arrow2Lend">
      <path
         transform="scale(1.1) rotate(180) translate(1,0)"
         d="M 8.7185878,4.0337352 L -2.2072895,0.016013256 L 8.7185884,-4.0017078 C 6.9730900,-1.6296469 6.9831476,1.6157441 8.7185878,4.0337352 z "
         style="fill-rule:evenodd;stroke-width:0.625;stroke-linejoin:round;stroke:#001aff;stroke-opacity:1;fill:#001aff;fill-opacity:1"
         id="path7295" />
    </marker>
    <marker
       inkscape:isstock="true"
       style="overflow:visible;"
       id="marker7287"
       refX="0.0"
       refY="0.0"
       orient="auto"
       inkscape:stockid="Arrow2Lend">
      <path
         transform="scale(1.1) rotate(180) translate(1,0)"
         d="M 8.7185878,4.0337352 L -2.2072895,0.016013256 L 8.7185884,-4.0017078 C 6.9730900,-1.6296469 6.9831476,1.6157441 8.7185878,4.0337352 z "
         style="fill-rule:evenodd;stroke-width:0.625;stroke-linejoin:round;stroke:#001aff;stroke-opacity:1;fill:#001aff;fill-opacity:1"
         id="path7285" />
    </marker>
    <marker
       inkscape:stockid="Arrow2Lend"
       orient="auto"
       refY="0.0"
       refX="0.0"
       id="Arrow2Lend"
       style="overflow:visible;"
       inkscape:isstock="true"
       inkscape:collect="always">
      <path
         id="path5712"
         style="fill-rule:evenodd;stroke-width:0.625;stroke-linejoin:round;stroke:#001aff;stroke-opacity:1;fill:#001aff;fill-opacity:1"
         d="M 8.7185878,4.0337352 L -2.2072895,0.016013256 L 8.7185884,-4.0017078 C 6.9730900,-1.6296469 6.9831476,1.6157441 8.7185878,4.0337352 z "
         transform="scale(1.1) rotate(180) translate(1,0)" />
    </marker>
    <marker
       inkscape:isstock="true"
       style="overflow:visible;"
       id="marker7071"
       refX="0.0"
       refY="0.0"
       orient="auto"
       inkscape:stockid="Arrow1Mend">
      <path
         transform="scale(0.4) rotate(180) translate(10,0)"
         style="fill-rule:evenodd;stroke:#000000;stroke-width:1pt;stroke-opacity:1;fill:#000000;fill-opacity:1"
         d="M 0.0,0.0 L 5.0,-5.0 L -12.5,0.0 L 5.0,5.0 L 0.0,0.0 z "
         id="path7069" />
    </marker>
    <marker
       inkscape:isstock="true"
       style="overflow:visible;"
       id="marker6977"
       refX="0.0"
       refY="0.0"
       orient="auto"
       inkscape:stockid="Arrow1Mend">
      <path
         transform="scale(0.4) rotate(180) translate(10,0)"
         style="fill-rule:evenodd;stroke:#000000;stroke-width:1pt;stroke-opacity:1;fill:#000000;fill-opacity:1"
         d="M 0.0,0.0 L 5.0,-5.0 L -12.5,0.0 L 5.0,5.0 L 0.0,0.0 z "
         id="path6975" />
    </marker>
    <marker
       inkscape:isstock="true"
       style="overflow:visible;"
       id="marker6889"
       refX="0.0"
       refY="0.0"
       orient="auto"
       inkscape:stockid="Arrow1Mend">
      <path
         transform="scale(0.4) rotate(180) translate(10,0)"
         style="fill-rule:evenodd;stroke:#000000;stroke-width:1pt;stroke-opacity:1;fill:#000000;fill-opacity:1"
         d="M 0.0,0.0 L 5.0,-5.0 L -12.5,0.0 L 5.0,5.0 L 0.0,0.0 z "
         id="path6887" />
    </marker>
    <marker
       inkscape:isstock="true"
       style="overflow:visible;"
       id="marker6711"
       refX="0.0"
       refY="0.0"
       orient="auto"
       inkscape:stockid="Arrow1Mend">
      <path
         transform="scale(0.4) rotate(180) translate(10,0)"
         style="fill-rule:evenodd;stroke:#000000;stroke-width:1pt;stroke-opacity:1;fill:#000000;fill-opacity:1"
         d="M 0.0,0.0 L 5.0,-5.0 L -12.5,0.0 L 5.0,5.0 L 0.0,0.0 z "
         id="path6709" />
    </marker>
    <marker
       inkscape:isstock="true"
       style="overflow:visible;"
       id="marker6629"
       refX="0.0"
       refY="0.0"
       orient="auto"
       inkscape:stockid="Arrow1Mend">
      <path
         transform="scale(0.4) rotate(180) translate(10,0)"
         style="fill-rule:evenodd;stroke:#000000;stroke-width:1pt;stroke-opacity:1;fill:#000000;fill-opacity:1"
         d="M 0.0,0.0 L 5.0,-5.0 L -12.5,0.0 L 5.0,5.0 L 0.0,0.0 z "
         id="path6627" />
    </marker>
    <marker
       inkscape:isstock="true"
       style="overflow:visible;"
       id="marker6619"
       refX="0.0"
       refY="0.0"
       orient="auto"
       inkscape:stockid="Arrow1Mend">
      <path
         transform="scale(0.4) rotate(180) translate(10,0)"
         style="fill-rule:evenodd;stroke:#000000;stroke-width:1pt;stroke-opacity:1;fill:#000000;fill-opacity:1"
         d="M 0.0,0.0 L 5.0,-5.0 L -12.5,0.0 L 5.0,5.0 L 0.0,0.0 z "
         id="path6617" />
    </marker>
    <marker
       inkscape:stockid="Arrow1Mend"
       orient="auto"
       refY="0.0"
       refX="0.0"
       id="marker6521"
       style="overflow:visible;"
       inkscape:isstock="true">
      <path
         id="path6519"
         d="M 0.0,0.0 L 5.0,-5.0 L -12.5,0.0 L 5.0,5.0 L 0.0,0.0 z "
         style="fill-rule:evenodd;stroke:#000000;stroke-width:1pt;stroke-opacity:1;fill:#000000;fill-opacity:1"
         transform="scale(0.4) rotate(180) translate(10,0)" />
    </marker>
    <marker
       inkscape:isstock="true"
       style="overflow:visible;"
       id="marker6369"
       refX="0.0"
       refY="0.0"
       orient="auto"
       inkscape:stockid="Arrow1Mend">
      <path
         transform="scale(0.4) rotate(180) translate(10,0)"
         style="fill-rule:evenodd;stroke:#000000;stroke-width:1pt;stroke-opacity:1;fill:#000000;fill-opacity:1"
         d="M 0.0,0.0 L 5.0,-5.0 L -12.5,0.0 L 5.0,5.0 L 0.0,0.0 z "
         id="path6367" />
    </marker>
    <marker
       inkscape:isstock="true"
       style="overflow:visible;"
       id="marker6301"
       refX="0.0"
       refY="0.0"
       orient="auto"
       inkscape:stockid="Arrow1Mend">
      <path
         transform="scale(0.4) rotate(180) translate(10,0)"
         style="fill-rule:evenodd;stroke:#000000;stroke-width:1pt;stroke-opacity:1;fill:#000000;fill-opacity:1"
         d="M 0.0,0.0 L 5.0,-5.0 L -12.5,0.0 L 5.0,5.0 L 0.0,0.0 z "
         id="path6299" />
    </marker>
    <marker
       inkscape:stockid="Arrow1Lend"
       orient="auto"
       refY="0.0"
       refX="0.0"
       id="marker6169"
       style="overflow:visible;"
       inkscape:isstock="true">
      <path
         id="path6167"
         d="M 0.0,0.0 L 5.0,-5.0 L -12.5,0.0 L 5.0,5.0 L 0.0,0.0 z "
         style="fill-rule:evenodd;stroke:#000000;stroke-width:1pt;stroke-opacity:1;fill:#000000;fill-opacity:1"
         transform="scale(0.8) rotate(180) translate(12.5,0)" />
    </marker>
    <marker
       inkscape:stockid="Arrow1Lend"
       orient="auto"
       refY="0.0"
       refX="0.0"
       id="marker6129"
       style="overflow:visible;"
       inkscape:isstock="true">
      <path
         id="path6127"
         d="M 0.0,0.0 L 5.0,-5.0 L -12.5,0.0 L 5.0,5.0 L 0.0,0.0 z "
         style="fill-rule:evenodd;stroke:#000000;stroke-width:1pt;stroke-opacity:1;fill:#000000;fill-opacity:1"
         transform="scale(0.8) rotate(180) translate(12.5,0)" />
    </marker>
    <marker
       inkscape:stockid="Arrow1Lend"
       orient="auto"
       refY="0.0"
       refX="0.0"
       id="marker6095"
       style="overflow:visible;"
       inkscape:isstock="true">
      <path
         id="path6093"
         d="M 0.0,0.0 L 5.0,-5.0 L -12.5,0.0 L 5.0,5.0 L 0.0,0.0 z "
         style="fill-rule:evenodd;stroke:#000000;stroke-width:1pt;stroke-opacity:1;fill:#000000;fill-opacity:1"
         transform="scale(0.8) rotate(180) translate(12.5,0)" />
    </marker>
    <marker
       inkscape:isstock="true"
       style="overflow:visible;"
       id="marker5997"
       refX="0.0"
       refY="0.0"
       orient="auto"
       inkscape:stockid="Arrow1Lend">
      <path
         transform="scale(0.8) rotate(180) translate(12.5,0)"
         style="fill-rule:evenodd;stroke:#000000;stroke-width:1pt;stroke-opacity:1;fill:#000000;fill-opacity:1"
         d="M 0.0,0.0 L 5.0,-5.0 L -12.5,0.0 L 5.0,5.0 L 0.0,0.0 z "
         id="path5995" />
    </marker>
    <marker
       inkscape:isstock="true"
       style="overflow:visible;"
       id="marker5975"
       refX="0.0"
       refY="0.0"
       orient="auto"
       inkscape:stockid="Arrow1Lend">
      <path
         transform="scale(0.8) rotate(180) translate(12.5,0)"
         style="fill-rule:evenodd;stroke:#000000;stroke-width:1pt;stroke-opacity:1;fill:#000000;fill-opacity:1"
         d="M 0.0,0.0 L 5.0,-5.0 L -12.5,0.0 L 5.0,5.0 L 0.0,0.0 z "
         id="path5973" />
    </marker>
  </defs>
  <sodipodi:namedview
     id="base"
     pagecolor="#ffffff"
     bordercolor="#666666"
     borderopacity="1.0"
     inkscape:pageopacity="0.0"
     inkscape:pageshadow="2"
     inkscape:zoom="5.6"
     inkscape:cx="162.57564"
     inkscape:cy="676.87502"
     inkscape:document-units="mm"
     inkscape:current-layer="layer1"
     showgrid="true"
     objecttolerance="10000"
     guidetolerance="10000"
     inkscape:window-width="2560"
     inkscape:window-height="1351"
     inkscape:window-x="0"
     inkscape:window-y="0"
     inkscape:window-maximized="1">
    <inkscape:grid
       type="xygrid"
       id="grid1187"
       dotted="true" />
  </sodipodi:namedview>
  <metadata
     id="metadata952">
    <rdf:RDF>
      <cc:Work
         rdf:about="">
        <dc:format>image/svg+xml</dc:format>
        <dc:type
           rdf:resource="http://purl.org/dc/dcmitype/StillImage" />
        <dc:title></dc:title>
      </cc:Work>
    </rdf:RDF>
  </metadata>
  <g
     inkscape:label="Layer 1"
     inkscape:groupmode="layer"
     id="layer1">
    <g
       transform="matrix(0.00254,0,0,0.00254,-20.40989,61.592046)"
       style="fill:#840000;fill-opacity:0;stroke:#840000;stroke-width:60;stroke-linecap:round;stroke-linejoin:round;stroke-opacity:1"
       id="g554">
      <path
         inkscape:connector-curvature="0"
         d="m 17500,24999.6 a 250,250 0 0 0 -500,0"
         id="path544" />
      <path
         inkscape:connector-curvature="0"
         d="m 17500,25000.4 a 250,250 0 0 0 500,0"
         id="path546" />
      <circle
         cx="17500"
         cy="25000"
         r="1120"
         id="circle548" />
      <path
         inkscape:connector-curvature="0"
         d="m 17500,23870 v -870"
         id="path550" />
      <path
         inkscape:connector-curvature="0"
         d="m 17500,26130 v 870"
         id="path552" />
    </g>
    <g
       transform="matrix(0.00254,0,0,0.00254,-20.40989,61.592046)"
       style="fill:#008484;fill-opacity:0;stroke:#008484;stroke-width:60;stroke-linecap:round;stroke-linejoin:round;stroke-opacity:1"
       id="g562">
      <path
         inkscape:connector-curvature="0"
         d="m 18560,23710 v 490 l 30,50 30,30 60,30 h 110 l 60,-30 30,-30 30,-50 v -490"
         id="path556" />
      <path
         inkscape:connector-curvature="0"
         d="m 19190,23910 v 600"
         id="path558" />
      <path
         inkscape:connector-curvature="0"
         d="m 19190,23940 60,-30 h 110 l 60,30 30,30 30,60 v 170 l -30,50 -30,30 -60,30 h -110 l -60,-30"
         id="path560" />
    </g>
    <g
       transform="matrix(0.00254,0,0,0.00254,-20.40989,61.592046)"
       style="fill:#840000;fill-opacity:0;stroke:#840000;stroke-width:60;stroke-linecap:round;stroke-linejoin:round;stroke-opacity:1"
       id="g580">
      <path
         inkscape:connector-curvature="0"
         d="m 17500.4,22500 a 250,250 0 0 0 0,-500"
         id="path568" />
      <path
         inkscape:connector-curvature="0"
         d="m 17500.4,22000 a 250,250 0 0 0 0,-500"
         id="path570" />
      <path
         inkscape:connector-curvature="0"
         d="m 17500.4,21500 a 250,250 0 0 0 0,-500"
         id="path572" />
      <path
         inkscape:connector-curvature="0"
         d="m 17500.4,21000 a 250,250 0 0 0 0,-500"
         id="path574" />
      <path
         inkscape:connector-curvature="0"
         d="m 17500,20500 v -500"
         id="path576" />
      <path
         inkscape:connector-curvature="0"
         d="m 17500,22500 v 500"
         id="path578" />
    </g>
    <g
       transform="matrix(0.00254,0,0,0.00254,-20.40989,61.592046)"
       style="fill:#008484;fill-opacity:0;stroke:#008484;stroke-width:60;stroke-linecap:round;stroke-linejoin:round;stroke-opacity:1"
       id="g588">
      <path
         inkscape:connector-curvature="0"
         d="m 17260,21550 v 240 h -500"
         id="path582" />
      <path
         inkscape:connector-curvature="0"
         d="m 16920,21390 h 500"
         id="path584" />
      <path
         inkscape:connector-curvature="0"
         d="m 16950,21390 -30,-50 v -90 l 30,-50 20,-20 50,-30 h 140 l 50,30 20,20 30,50 v 90 l -30,50"
         id="path586" />
    </g>
    <g
       transform="matrix(0.00254,0,0,0.00254,-20.40989,61.592046)"
       style="fill:#840000;fill-opacity:0;stroke:#840000;stroke-width:100;stroke-linecap:round;stroke-linejoin:round;stroke-opacity:1"
       id="g596">
      <rect
         x="19000"
         y="18600"
         width="2000"
         height="800"
         rx="0"
         id="rect594" />
    </g>
    <g
       transform="matrix(0.00254,0,0,0.00254,-20.40989,61.592046)"
       style="fill:#840000;fill-opacity:0;stroke:#840000;stroke-width:60;stroke-linecap:round;stroke-linejoin:round;stroke-opacity:1"
       id="g602">
      <path
         inkscape:connector-curvature="0"
         d="m 21000,19000 h 500"
         id="path598" />
      <path
         inkscape:connector-curvature="0"
         d="m 19000,19000 h -500"
         id="path600" />
    </g>
    <g
       transform="matrix(0.00254,0,0,0.00254,-20.40989,61.592046)"
       style="fill:#008484;fill-opacity:0;stroke:#008484;stroke-width:60;stroke-linecap:round;stroke-linejoin:round;stroke-opacity:1"
       id="g612">
      <path
         inkscape:connector-curvature="0"
         d="m 19930,20060 -160,-240"
         id="path604" />
      <path
         inkscape:connector-curvature="0"
         d="m 19650,20060 v -500 h 190 l 50,20 20,20 20,50 v 70 l -20,50 -20,20 -50,30 h -190"
         id="path606" />
      <path
         inkscape:connector-curvature="0"
         d="m 20150,19720 v 500"
         id="path608" />
      <path
         inkscape:connector-curvature="0"
         d="m 20150,19750 50,-30 h 90 l 50,30 20,20 30,50 v 140 l -30,50 -20,20 -50,30 h -90 l -50,-30"
         id="path610" />
    </g>
    <g
       transform="matrix(0.00254,0,0,0.00254,-20.40989,61.592046)"
       style="fill:#840000;fill-opacity:0;stroke:#840000;stroke-width:200;stroke-linecap:round;stroke-linejoin:round;stroke-opacity:1"
       id="g622">
      <polyline
         fill="none;"
         points="22200,23300 23800,23300 "
         id="polyline618" />
      <polyline
         fill="none;"
         points="22200,22700 23800,22700 "
         id="polyline620" />
    </g>
    <g
       transform="matrix(0.00254,0,0,0.00254,-20.40989,61.592046)"
       style="fill:#840000;fill-opacity:0;stroke:#840000;stroke-width:60;stroke-linecap:round;stroke-linejoin:round;stroke-opacity:1"
       id="g628">
      <path
         inkscape:connector-curvature="0"
         d="M 23000,22600 V 21500"
         id="path624" />
      <path
         inkscape:connector-curvature="0"
         d="m 23000,23400 v 1100"
         id="path626" />
    </g>
    <g
       transform="matrix(0.00254,0,0,0.00254,-20.40989,61.592046)"
       style="fill:#008484;fill-opacity:0;stroke:#008484;stroke-width:60;stroke-linecap:round;stroke-linejoin:round;stroke-opacity:1"
       id="g636">
      <path
         inkscape:connector-curvature="0"
         d="m 23650,22210 -20,20 -70,30 h -50 l -70,-30 -50,-50 -20,-40 -20,-100 v -70 l 20,-90 20,-50 50,-50 70,-20 h 50 l 70,20 20,20"
         id="path630" />
      <path
         inkscape:connector-curvature="0"
         d="m 23820,22260 260,-340"
         id="path632" />
      <path
         inkscape:connector-curvature="0"
         d="m 23820,21920 260,340"
         id="path634" />
    </g>
    <g
       transform="matrix(0.00254,0,0,0.00254,-20.40989,61.592046)"
       style="fill:#840000;fill-opacity:0;stroke:#840000;stroke-width:200;stroke-linecap:round;stroke-linejoin:round;stroke-opacity:1"
       id="g646">
      <polyline
         fill="none;"
         points="27200,25300 28800,25300 "
         id="polyline642" />
      <polyline
         fill="none;"
         points="27200,24700 28800,24700 "
         id="polyline644" />
    </g>
    <g
       transform="matrix(0.00254,0,0,0.00254,-20.40989,61.592046)"
       style="fill:#840000;fill-opacity:0;stroke:#840000;stroke-width:60;stroke-linecap:round;stroke-linejoin:round;stroke-opacity:1"
       id="g652">
      <path
         inkscape:connector-curvature="0"
         d="M 28000,24600 V 23500"
         id="path648" />
      <path
         inkscape:connector-curvature="0"
         d="m 28000,25400 v 1100"
         id="path650" />
    </g>
    <g
       transform="matrix(0.00254,0,0,0.00254,-20.40989,61.592046)"
       style="fill:#008484;fill-opacity:0;stroke:#008484;stroke-width:60;stroke-linecap:round;stroke-linejoin:round;stroke-opacity:1"
       id="g660">
      <path
         inkscape:connector-curvature="0"
         d="m 28650,24210 -20,20 -70,30 h -50 l -70,-30 -50,-50 -20,-40 -20,-100 v -70 l 20,-90 20,-50 50,-50 70,-20 h 50 l 70,20 20,20"
         id="path654" />
      <path
         inkscape:connector-curvature="0"
         d="m 28800,23920 h 190"
         id="path656" />
      <path
         inkscape:connector-curvature="0"
         d="m 28870,23760 v 420 l 20,50 50,30 h 50"
         id="path658" />
    </g>
    <g
       transform="matrix(0.00254,0,0,0.00254,-20.40989,61.592046)"
       style="fill:#840000;fill-opacity:0;stroke:#840000;stroke-width:100;stroke-linecap:round;stroke-linejoin:round;stroke-opacity:1"
       id="g668">
      <rect
         x="27600"
         y="21000"
         width="800"
         height="2000"
         rx="0"
         id="rect666" />
    </g>
    <g
       transform="matrix(0.00254,0,0,0.00254,-20.40989,61.592046)"
       style="fill:#840000;fill-opacity:0;stroke:#840000;stroke-width:60;stroke-linecap:round;stroke-linejoin:round;stroke-opacity:1"
       id="g674">
      <path
         inkscape:connector-curvature="0"
         d="m 28000,23000 v 500"
         id="path670" />
      <path
         inkscape:connector-curvature="0"
         d="m 28000,21000 v -500"
         id="path672" />
    </g>
    <g
       transform="matrix(0.00254,0,0,0.00254,-20.40989,61.592046)"
       style="fill:#008484;fill-opacity:0;stroke:#008484;stroke-width:60;stroke-linecap:round;stroke-linejoin:round;stroke-opacity:1"
       id="g684">
      <path
         inkscape:connector-curvature="0"
         d="m 27390,21990 -240,160"
         id="path676" />
      <path
         inkscape:connector-curvature="0"
         d="m 27390,22270 h -500 v -190 l 20,-50 20,-20 50,-20 h 70 l 50,20 20,20 30,50 v 190"
         id="path678" />
      <path
         inkscape:connector-curvature="0"
         d="m 27050,21840 v -190"
         id="path680" />
      <path
         inkscape:connector-curvature="0"
         d="m 26890,21770 h 420 l 50,-20 30,-50 v -50"
         id="path682" />
    </g>
    <g
       transform="matrix(0.00254,0,0,0.00254,-20.40989,61.592046)"
       style="fill:#840000;fill-opacity:0;stroke:#840000;stroke-width:100;stroke-linecap:round;stroke-linejoin:round;stroke-opacity:1"
       id="g692">
      <rect
         x="32600"
         y="22000"
         width="800"
         height="2000"
         rx="0"
         id="rect690" />
    </g>
    <g
       transform="matrix(0.00254,0,0,0.00254,-20.40989,61.592046)"
       style="fill:#840000;fill-opacity:0;stroke:#840000;stroke-width:60;stroke-linecap:round;stroke-linejoin:round;stroke-opacity:1"
       id="g698">
      <path
         inkscape:connector-curvature="0"
         d="m 33000,22000 v -500"
         id="path694" />
      <path
         inkscape:connector-curvature="0"
         d="m 33000,24000 v 500"
         id="path696" />
    </g>
    <g
       transform="matrix(0.00254,0,0,0.00254,-20.40989,61.592046)"
       style="fill:#008484;fill-opacity:0;stroke:#008484;stroke-width:60;stroke-linecap:round;stroke-linejoin:round;stroke-opacity:1"
       id="g708">
      <path
         inkscape:connector-curvature="0"
         d="m 32260,23050 -240,160"
         id="path700" />
      <path
         inkscape:connector-curvature="0"
         d="m 32260,23330 h -500 v -190 l 20,-50 20,-20 50,-20 h 70 l 50,20 20,20 30,50 v 190"
         id="path702" />
      <path
         inkscape:connector-curvature="0"
         d="m 32260,22880 -340,-260"
         id="path704" />
      <path
         inkscape:connector-curvature="0"
         d="m 31920,22880 340,-260"
         id="path706" />
    </g>
    <g
       transform="matrix(0.00254,0,0,0.00254,-20.40989,61.592046)"
       style="fill:#008400;fill-opacity:0;stroke:#008400;stroke-width:60;stroke-linecap:round;stroke-linejoin:round;stroke-opacity:1"
       id="g722">
      <path
         inkscape:connector-curvature="0"
         d="m 17500,23000 v 0"
         id="path710" />
      <path
         inkscape:connector-curvature="0"
         d="M 17500,20000 V 19000"
         id="path712" />
      <path
         inkscape:connector-curvature="0"
         d="m 17500,19000 h 1000"
         id="path714" />
      <path
         inkscape:connector-curvature="0"
         d="m 23000,19000 v 2500"
         id="path716" />
      <path
         inkscape:connector-curvature="0"
         d="M 23000,27500 V 24500"
         id="path718" />
      <path
         inkscape:connector-curvature="0"
         d="m 17500,27000 v 500"
         id="path720" />
    </g>
    <g
       transform="matrix(0.00254,0,0,0.00254,-20.40989,61.592046)"
       style="fill:#008400;fill-opacity:1;stroke:#008400;stroke-width:100;stroke-linecap:round;stroke-linejoin:round;stroke-opacity:1"
       id="g728">
      <circle
         cx="23000"
         cy="19000"
         r="200"
         id="circle726" />
    </g>
    <g
       transform="matrix(0.00254,0,0,0.00254,-20.40989,61.592046)"
       style="fill:#008400;fill-opacity:1;stroke:#008400;stroke-width:100;stroke-linecap:round;stroke-linejoin:round;stroke-opacity:1"
       id="g734">
      <circle
         cx="23000"
         cy="27500"
         r="200"
         id="circle732" />
    </g>
    <g
       transform="matrix(0.00254,0,0,0.00254,-20.40989,61.592046)"
       style="fill:#008400;fill-opacity:0;stroke:#008400;stroke-width:60;stroke-linecap:round;stroke-linejoin:round;stroke-opacity:1"
       id="g748">
      <path
         inkscape:connector-curvature="0"
         d="m 28000,19000 v 1500"
         id="path738" />
      <path
         inkscape:connector-curvature="0"
         d="M 33000,27500 V 24500"
         id="path740" />
      <path
         inkscape:connector-curvature="0"
         d="M 21500,19000 H 34000"
         id="path742" />
      <path
         inkscape:connector-curvature="0"
         d="M 17500,27500 H 34000"
         id="path744" />
      <path
         inkscape:connector-curvature="0"
         d="m 28000,26500 v 1000"
         id="path746" />
    </g>
    <g
       transform="matrix(0.00254,0,0,0.00254,-20.40989,61.592046)"
       style="fill:#008400;fill-opacity:1;stroke:#008400;stroke-width:100;stroke-linecap:round;stroke-linejoin:round;stroke-opacity:1"
       id="g754">
      <circle
         cx="28000"
         cy="27500"
         r="200"
         id="circle752" />
    </g>
    <g
       transform="matrix(0.00254,0,0,0.00254,-20.40989,61.592046)"
       style="fill:#008400;fill-opacity:0;stroke:#008400;stroke-width:60;stroke-linecap:round;stroke-linejoin:round;stroke-opacity:1"
       id="g760">
      <path
         inkscape:connector-curvature="0"
         d="m 33000,19000 v 2500"
         id="path758" />
    </g>
    <g
       transform="matrix(0.00254,0,0,0.00254,-20.40989,61.592046)"
       style="fill:#008400;fill-opacity:1;stroke:#008400;stroke-width:100;stroke-linecap:round;stroke-linejoin:round;stroke-opacity:1"
       id="g766">
      <circle
         cx="28000"
         cy="19000"
         r="200"
         id="circle764" />
    </g>
    <g
       transform="matrix(0.00254,0,0,0.00254,-20.40989,61.592046)"
       style="fill:#840000;fill-opacity:0;stroke:#840000;stroke-width:60;stroke-linecap:round;stroke-linejoin:round;stroke-opacity:1"
       id="g776">
      <polyline
         fill="none;"
         points="36000,19000 35500,18500 35000,19000 35500,19500 36000,19000 36000,19000 "
         id="polyline772" />
      <path
         inkscape:connector-curvature="0"
         d="M 35000,19000 H 34000"
         id="path774" />
    </g>
    <g
       transform="matrix(0.00254,0,0,0.00254,-20.40989,61.592046)"
       style="fill:#008484;fill-opacity:0;stroke:#008484;stroke-width:60;stroke-linecap:round;stroke-linejoin:round;stroke-opacity:1"
       id="g784">
      <path
         inkscape:connector-curvature="0"
         d="m 35090,17480 330,500"
         id="path778" />
      <path
         inkscape:connector-curvature="0"
         d="m 35420,17480 -330,500"
         id="path780" />
      <path
         inkscape:connector-curvature="0"
         d="m 35600,17520 20,-20 50,-20 h 120 l 40,20 30,20 20,50 v 50 l -20,70 -290,290 h 310"
         id="path782" />
    </g>
    <g
       transform="matrix(0.00254,0,0,0.00254,-20.40989,61.592046)"
       style="fill:#840000;fill-opacity:0;stroke:#840000;stroke-width:60;stroke-linecap:round;stroke-linejoin:round;stroke-opacity:1"
       id="g794">
      <polyline
         fill="none;"
         points="36000,27500 35500,27000 35000,27500 35500,28000 36000,27500 36000,27500 "
         id="polyline790" />
      <path
         inkscape:connector-curvature="0"
         d="M 35000,27500 H 34000"
         id="path792" />
    </g>
    <g
       transform="matrix(0.00254,0,0,0.00254,-20.40989,61.592046)"
       style="fill:#008484;fill-opacity:0;stroke:#008484;stroke-width:60;stroke-linecap:round;stroke-linejoin:round;stroke-opacity:1"
       id="g804">
      <path
         inkscape:connector-curvature="0"
         d="m 35090,25980 330,500"
         id="path796" />
      <path
         inkscape:connector-curvature="0"
         d="m 35420,25980 -330,500"
         id="path798" />
      <path
         inkscape:connector-curvature="0"
         d="m 35880,26480 h -280"
         id="path800" />
      <path
         inkscape:connector-curvature="0"
         d="m 35740,26480 v -500 l -50,70 -50,50 -40,20"
         id="path802" />
    </g>
    <g
       transform="matrix(0.00254,0,0,0.00254,-20.40989,61.592046)"
       style="fill:#008400;fill-opacity:1;stroke:#008400;stroke-width:100;stroke-linecap:round;stroke-linejoin:round;stroke-opacity:1"
       id="g812">
      <circle
         cx="33000"
         cy="19000"
         r="200"
         id="circle810" />
    </g>
    <g
       transform="matrix(0.00254,0,0,0.00254,-20.40989,61.592046)"
       style="fill:#008400;fill-opacity:1;stroke:#008400;stroke-width:100;stroke-linecap:round;stroke-linejoin:round;stroke-opacity:1"
       id="g818">
      <circle
         cx="33000"
         cy="27500"
         r="200"
         id="circle816" />
    </g>
    <path
       style="fill:none;stroke:#001aff;stroke-width:0.165;stroke-linecap:butt;stroke-linejoin:miter;stroke-opacity:1;stroke-miterlimit:3.8;stroke-dasharray:none;marker-end:url(#marker7297)"
       d="M 26.458333,106.5 H 35.71875"
       id="path4878"
       inkscape:connector-curvature="0" />
    <path
       style="fill:none;stroke:#001aff;stroke-width:0.165;stroke-linecap:butt;stroke-linejoin:miter;stroke-opacity:1;stroke-miterlimit:3.8;stroke-dasharray:none;marker-end:url(#marker7287)"
       d="m 34.395833,114.4375 v 10.58333"
       id="path4880"
       inkscape:connector-curvature="0" />
    <path
       style="fill:none;stroke:#001aff;stroke-width:0.165;stroke-linecap:butt;stroke-linejoin:miter;stroke-opacity:1;stroke-miterlimit:3.8;stroke-dasharray:none;marker-end:url(#Arrow2Lend)"
       d="m 46.302083,114.4375 v 10.58333"
       id="path4882"
       inkscape:connector-curvature="0" />
    <path
       style="fill:none;stroke:#001aff;stroke-width:0.16500001;stroke-linecap:butt;stroke-linejoin:miter;stroke-miterlimit:3.79999995;stroke-dasharray:none;stroke-opacity:1;marker-end:url(#marker7409)"
       d="m 59.53125,114.4375 v 10.58333"
       id="path4884"
       inkscape:connector-curvature="0" />
    <text
       xml:space="preserve"
       style="font-style:normal;font-weight:normal;font-size:10.58333302px;line-height:1.25;font-family:'DejaVu Serif';letter-spacing:0px;word-spacing:0px;fill:#000000;fill-opacity:1;stroke:none;stroke-width:0.26458332;-inkscape-font-specification:'DejaVu Serif';font-stretch:normal;font-variant:normal;"
       x="30.427082"
       y="105.17708"
       id="text7923"><tspan
         sodipodi:role="line"
         id="tspan7921"
         x="30.427082"
         y="114.54085"
         style="stroke-width:0.26458332;-inkscape-font-specification:'DejaVu Serif';font-family:'DejaVu Serif';font-weight:normal;font-style:normal;font-stretch:normal;font-variant:normal;" /></text>
    <text
       xml:space="preserve"
       style="font-style:normal;font-weight:normal;font-size:10.58333302px;line-height:1.25;font-family:sans-serif;letter-spacing:0px;word-spacing:0px;fill:#000000;fill-opacity:1;stroke:none;stroke-width:0.26458332"
       x="32.080727"
       y="119.68192"
       id="text7931"><tspan
         sodipodi:role="line"
         id="tspan7929"
         x="32.080727"
         y="119.68192"
         style="font-style:normal;font-variant:normal;font-weight:normal;font-stretch:normal;font-size:2.11666656px;font-family:'VL Gothic';-inkscape-font-specification:'VL Gothic';stroke-width:0.26458332">I1</tspan></text>
    <text
       xml:space="preserve"
       style="font-style:normal;font-weight:normal;font-size:10.58333302px;line-height:1.25;font-family:sans-serif;letter-spacing:0px;word-spacing:0px;fill:#000000;fill-opacity:1;stroke:none;stroke-width:0.26458332"
       x="43.656246"
       y="119.68192"
       id="text7931-5"><tspan
         sodipodi:role="line"
         id="tspan7929-5"
         x="43.656246"
         y="119.68192"
         style="font-style:normal;font-variant:normal;font-weight:normal;font-stretch:normal;font-size:2.11666656px;font-family:'VL Gothic';-inkscape-font-specification:'VL Gothic';stroke-width:0.26458332">I2</tspan></text>
    <text
       xml:space="preserve"
       style="font-style:normal;font-weight:normal;font-size:10.58333302px;line-height:1.25;font-family:sans-serif;letter-spacing:0px;word-spacing:0px;fill:#000000;fill-opacity:1;stroke:none;stroke-width:0.26458332"
       x="56.838165"
       y="119.68194"
       id="text7931-2"><tspan
         sodipodi:role="line"
         id="tspan7929-1"
         x="56.838165"
         y="119.68194"
         style="font-style:normal;font-variant:normal;font-weight:normal;font-stretch:normal;font-size:2.11666656px;font-family:'VL Gothic';-inkscape-font-specification:'VL Gothic';stroke-width:0.26458332">I3</tspan></text>
    <text
       xml:space="preserve"
       style="font-style:normal;font-weight:normal;font-size:10.58333302px;line-height:1.25;font-family:sans-serif;letter-spacing:0px;word-spacing:0px;fill:#000000;fill-opacity:1;stroke:none;stroke-width:0.26458332"
       x="30.143599"
       y="105.98029"
       id="text7931-59"><tspan
         sodipodi:role="line"
         id="tspan7929-9"
         x="30.143599"
         y="105.98029"
         style="font-style:normal;font-variant:normal;font-weight:normal;font-stretch:normal;font-size:2.11666656px;font-family:'VL Gothic';-inkscape-font-specification:'VL Gothic';stroke-width:0.26458332">I</tspan></text>
  </g>
</svg>
